<svg xmlns="http://www.w3.org/2000/svg" width="24.002" height="25" viewBox="0 0 24.002 25">
  <g id="Auction_Icon" data-name="Auction Icon" transform="translate(-38 -291)">
    <g id="Group_19196" data-name="Group 19196" transform="translate(38 292)">
      <g id="Group_19195" data-name="Group 19195">
        <path id="Path_20004" data-name="Path 20004" d="M12.5,24H1.5A1.5,1.5,0,0,1,0,22.5v-1A1.5,1.5,0,0,1,1.5,20h11A1.5,1.5,0,0,1,14,21.5v1A1.5,1.5,0,0,1,12.5,24Zm-11-3a.5.5,0,0,0-.5.5v1a.5.5,0,0,0,.5.5h11a.5.5,0,0,0,.5-.5v-1a.5.5,0,0,0-.5-.5Z"/>
      </g>
    </g>
    <g id="Group_19207" data-name="Group 19207" transform="translate(38 291)">
      <g id="Group_19203" data-name="Group 19203">
        <g id="Group_19198" data-name="Group 19198">
          <g id="Group_19197" data-name="Group 19197">
            <path id="Path_20005" data-name="Path 20005" d="M10.693,12.628a.869.869,0,0,1-.64-.252l-3.51-3.51c-.614-.614.061-1.676.282-2.024a13.73,13.73,0,0,1,1.821-2.19,13.719,13.719,0,0,1,2.192-1.825c.35-.223,1.413-.9,2.027-.284l3.51,3.51c.615.615-.062,1.679-.284,2.028a13.743,13.743,0,0,1-1.826,2.193,13.705,13.705,0,0,1-2.189,1.82,2.892,2.892,0,0,1-1.383.534ZM12.159,3.25a8.411,8.411,0,0,0-2.8,2.105c-1.53,1.53-2.1,2.628-2.064,2.876l3.468,3.438a8.4,8.4,0,0,0,2.8-2.106,7.212,7.212,0,0,0,2.064-2.844Z"/>
          </g>
        </g>
        <g id="Group_19200" data-name="Group 19200">
          <g id="Group_19199" data-name="Group 19199">
            <path id="Path_20006" data-name="Path 20006" d="M9,14.919a1.49,1.49,0,0,1-1.056-.437l-3.51-3.51a1.492,1.492,0,0,1,0-2.111l.7-.7a1.494,1.494,0,0,1,2.111,0l3.51,3.51a1.494,1.494,0,0,1,0,2.111l-.7.7A1.492,1.492,0,0,1,9,14.919ZM6.2,8.722a.5.5,0,0,0-.349.145l-.7.7a.493.493,0,0,0,0,.7l3.51,3.51a.5.5,0,0,0,.7,0l.7-.7a.494.494,0,0,0,0-.7l-3.51-3.51A.5.5,0,0,0,6.2,8.722Z"/>
          </g>
        </g>
        <g id="Group_19202" data-name="Group 19202">
          <g id="Group_19201" data-name="Group 19201">
            <path id="Path_20007" data-name="Path 20007" d="M16.725,7.2a1.49,1.49,0,0,1-1.056-.437l-3.51-3.51a1.493,1.493,0,0,1,0-2.11l.7-.7a1.494,1.494,0,0,1,2.111,0l3.51,3.51a1.494,1.494,0,0,1,0,2.111l-.7.7a1.487,1.487,0,0,1-1.055.436ZM13.917,1a.5.5,0,0,0-.349.144l-.7.7a.492.492,0,0,0,0,.7l3.51,3.51a.5.5,0,0,0,.7,0l.7-.7a.494.494,0,0,0,0-.7l-3.51-3.51A.491.491,0,0,0,13.917,1Zm4.211,4.7h.01Z"/>
          </g>
        </g>
      </g>
      <g id="Group_19206" data-name="Group 19206">
        <g id="Group_19205" data-name="Group 19205">
          <g id="Group_19204" data-name="Group 19204">
            <path id="Path_20008" data-name="Path 20008" d="M22.1,20a2.9,2.9,0,0,1-1.942-1.035c-.69-.69-4.747-5.155-7.265-8.124a.5.5,0,0,1,.763-.646c2.626,3.1,6.613,7.467,7.209,8.063,1.126,1.128,1.565.689,1.827.429A.878.878,0,0,0,23,18.171c.034-.341-.221-.793-.736-1.309-.591-.592-4.955-4.573-8.063-7.211a.5.5,0,1,1,.647-.762c2.981,2.529,7.441,6.581,8.125,7.266a2.744,2.744,0,0,1,1.024,2.115A2.13,2.13,0,0,1,22.1,20Z"/>
          </g>
        </g>
      </g>
    </g>
  </g>
</svg>
