<svg xmlns="http://www.w3.org/2000/svg" width="23" height="23" viewBox="0 0 23 23">
  <g id="Before_approval_icon" data-name="Before approval icon" transform="translate(-1235 -755)">
    <g id="Path_20027" data-name="Path 20027" transform="translate(1235 755)" fill="none">
      <path d="M5,0H18a5,5,0,0,1,5,5V18a5,5,0,0,1-5,5H5a5,5,0,0,1-5-5V5A5,5,0,0,1,5,0Z" stroke="none"/>
      <path d="M 5 0.5 C 2.51869010925293 0.5 0.5 2.51869010925293 0.5 5 L 0.5 18 C 0.5 20.48130989074707 2.51869010925293 22.5 5 22.5 L 18 22.5 C 20.48130989074707 22.5 22.5 20.48130989074707 22.5 18 L 22.5 5 C 22.5 2.51869010925293 20.48130989074707 0.5 18 0.5 L 5 0.5 M 5 0 L 18 0 C 20.76141929626465 0 23 2.238580703735352 23 5 L 23 18 C 23 20.76141929626465 20.76141929626465 23 18 23 L 5 23 C 2.238580703735352 23 0 20.76141929626465 0 18 L 0 5 C 0 2.238580703735352 2.238580703735352 0 5 0 Z" stroke="none" fill="#46a02e"/>
    </g>
    <path id="Icon_material-done" data-name="Icon material-done" d="M9.482,16.694,6.2,13.408,5.1,14.5l4.382,4.382L18.871,9.5l-1.1-1.1Z" transform="translate(1234.9 752.6)" fill="#46a02e"/>
  </g>
</svg>
