<svg xmlns="http://www.w3.org/2000/svg" width="23" height="23" viewBox="0 0 23 23">
  <g id="Bid_Icon" data-name="Bid Icon" transform="translate(-1135 -420)">
    <rect id="Rectangle_2666" data-name="Rectangle 2666" width="23" height="23" rx="5" transform="translate(1135 420)" fill="#264897"/>
    <g id="bid" transform="translate(1066.625 425)">
      <path id="Path_19999" data-name="Path 19999" d="M84.756,0H78.687a.2.2,0,0,0-.2.2V1.365a.2.2,0,1,0,.4,0V.4h5.671V5.305h-.708v-.37a.2.2,0,0,0-.2-.2H83.09a.2.2,0,0,0,0,.4h.362v.64H79.991v-.64h2.171a.2.2,0,0,0,0-.4h-2.37a.2.2,0,0,0-.2.2v.37h-.708V2.293a.2.2,0,0,0-.4,0V5.5a.2.2,0,0,0,.2.2h.906v.27a.2.2,0,0,0,.2.2h1.2v.642h-.406a3.38,3.38,0,0,0-2.216.827,1,1,0,0,1-.657.24H77.4V7.729a.2.2,0,0,0-.2-.2H75.574a.2.2,0,0,0-.2.2V8.2a.2.2,0,1,0,.4,0V7.928H77v4.534H75.773V9.129a.2.2,0,1,0-.4,0v3.532a.2.2,0,0,0,.2.2H77.2a.2.2,0,0,0,.2-.2V12.51h.319a1,1,0,0,1,.657.24,3.38,3.38,0,0,0,2.216.827h2.589a.835.835,0,0,0,.709-1.276.835.835,0,0,0,.546-1.393A.835.835,0,0,0,84.4,9.465a.835.835,0,0,0-.635-1.378h-.654V7.649a.837.837,0,0,0-.663-.818v-.66h1.2a.2.2,0,0,0,.2-.2V5.7h.906a.2.2,0,0,0,.2-.2V.2A.2.2,0,0,0,84.756,0Zm-.99,8.485a.438.438,0,1,1,0,.875H82.472a.2.2,0,0,0,0,.4H84a.438.438,0,1,1,0,.875H82.472a.2.2,0,0,0,0,.4h1.341a.438.438,0,0,1,0,.875H82.472a.2.2,0,0,0,0,.4h.7a.438.438,0,0,1,0,.875H80.587a2.983,2.983,0,0,1-1.955-.73,1.4,1.4,0,0,0-.918-.337H77.4V8.278h.319a1.4,1.4,0,0,0,.918-.337,2.983,2.983,0,0,1,1.955-.73h.406v.875h-.433a.2.2,0,0,0,0,.4c.658,0,3.208,0,3.2,0Zm-1.052-.835v.438h-.265v-.84a.438.438,0,0,1,.265.4Zm-.663.438h-.659V6.172h.659Z" transform="translate(0 0)" fill="#fff"/>
      <path id="Path_20000" data-name="Path 20000" d="M252.633,59.411l1.239-1.239a.629.629,0,0,0-.89-.89l-.847.847-.247-.247a.629.629,0,0,0-.89.89l.639.639A.706.706,0,0,0,252.633,59.411Zm-1.355-1.248a.232.232,0,0,1,.328,0l.385.385a.2.2,0,0,0,.288,0l.984-.984a.232.232,0,0,1,.328.328l-1.239,1.239a.308.308,0,0,1-.435,0l-.639-.639A.232.232,0,0,1,251.278,58.163Z" transform="translate(-170.785 -55.584)" fill="#fff"/>
    </g>
  </g>
</svg>
