<svg id="cancel" xmlns="http://www.w3.org/2000/svg" width="21.929" height="21.929" viewBox="0 0 21.929 21.929">
  <path id="Path_20029" data-name="Path 20029" d="M10.965,0A10.965,10.965,0,1,1,0,10.965,10.965,10.965,0,0,1,10.965,0Z" fill="#264897"/>
  <path id="Icon_awesome-edit" data-name="Icon awesome-edit" d="M12.646,4.654a.262.262,0,0,1,0,.37L6.79,10.881,4.3,11.157a.522.522,0,0,1-.577-.577L4,8.092,9.858,2.235Zm1.925-3.033L13.263.313a1.049,1.049,0,0,0-1.48,0l-.949.949a.262.262,0,0,0,0,.37l2.419,2.419a.262.262,0,0,0,.37,0l.949-.949a1.049,1.049,0,0,0,0-1.48Z" transform="translate(1.665 5.381)" fill="#fff"/>
</svg>
