<svg xmlns="http://www.w3.org/2000/svg" width="26.564" height="26.573" viewBox="0 0 26.564 26.573">
  <g id="Payment_Icon" data-name="Payment Icon" transform="translate(-34.968 -432.91)">
    <path id="Path_20012" data-name="Path 20012" d="M188.449,5.707A5.707,5.707,0,1,0,194.156,0,5.714,5.714,0,0,0,188.449,5.707Zm10.377,0a4.67,4.67,0,1,1-4.67-4.67A4.675,4.675,0,0,1,198.826,5.707Zm0,0" transform="translate(-143.727 432.91)"/>
    <path id="Path_20013" data-name="Path 20013" d="M6.477,227.719a.519.519,0,0,0,.732,0l2.516-2.478a1.568,1.568,0,0,0,.369-1.61l.541-.522a1.547,1.547,0,0,1,1.08-.436h6.9a4.645,4.645,0,0,0,3.257-1.323c.036-.035-.274.33,4.706-5.621a2.075,2.075,0,0,0-3.158-2.694l-3.062,3.147a2.085,2.085,0,0,0-1.613-.772H12.958a6.694,6.694,0,0,0-2.6-.519,6.419,6.419,0,0,0-5.851,3.318,1.55,1.55,0,0,0-1.388.43L.653,221.117a.519.519,0,0,0,0,.732Zm3.882-11.787a5.664,5.664,0,0,1,2.284.475.518.518,0,0,0,.208.044h5.892a1.038,1.038,0,1,1,0,2.075H14.51a.519.519,0,1,0,0,1.038h4.233a2.072,2.072,0,0,0,2.057-2.347c2.962-3.044,3.379-3.472,3.4-3.493a1.038,1.038,0,1,1,1.585,1.341l-4.654,5.563a3.613,3.613,0,0,1-2.515,1.011h-6.9a2.58,2.58,0,0,0-1.8.727l-.441.426-4.065-4.065a5.357,5.357,0,0,1,4.95-2.8Zm-6.5,3.443A.518.518,0,0,1,4.5,219.3c.09.055-.168-.18,4.494,4.476a.52.52,0,0,1,0,.731L6.85,226.621l-5.1-5.137Zm0,0" transform="translate(34.467 231.611)"/>
    <path id="Path_20014" data-name="Path 20014" d="M266.858,40.507v.608a1.556,1.556,0,0,0,.519,3.024.519.519,0,1,1,0,1.038.938.938,0,0,1-.674-.392.519.519,0,1,0-.794.668,2.152,2.152,0,0,0,.949.676v.606a.519.519,0,1,0,1.038,0v-.608a1.556,1.556,0,0,0-.519-3.024.519.519,0,0,1,0-1.038.833.833,0,0,1,.561.271.519.519,0,1,0,.722-.746,2,2,0,0,0-.764-.478v-.6a.519.519,0,1,0-1.038,0Zm0,0" transform="translate(-217.051 394.998)"/>
  </g>
</svg>
