<svg xmlns="http://www.w3.org/2000/svg" width="27.397" height="24.348" viewBox="0 0 27.397 24.348">
  <path id="profile_edit_profile" d="M19.149,3.96l4.29,4.29a.465.465,0,0,1,0,.656L13.052,19.294l-4.414.49a.925.925,0,0,1-1.023-1.023l.49-4.414L18.493,3.96A.465.465,0,0,1,19.149,3.96ZM26.855,2.87,24.534.549a1.86,1.86,0,0,0-2.626,0L20.224,2.233a.465.465,0,0,0,0,.656l4.29,4.29a.465.465,0,0,0,.656,0L26.855,5.5a1.86,1.86,0,0,0,0-2.626Zm-8.59,13.6v4.842H3.044V6.09h10.93a.585.585,0,0,0,.4-.166l1.9-1.9a.571.571,0,0,0-.4-.975H2.283A2.284,2.284,0,0,0,0,5.329V22.072a2.284,2.284,0,0,0,2.283,2.283H19.026a2.284,2.284,0,0,0,2.283-2.283V14.566a.572.572,0,0,0-.975-.4l-1.9,1.9A.585.585,0,0,0,18.265,16.469Z" transform="translate(0 -0.007)" fill="#264897"/>
</svg>
