<svg xmlns="http://www.w3.org/2000/svg" width="20.369" height="22.969" viewBox="0 0 20.369 22.969">
  <g id="user_1_" data-name="user (1)" transform="translate(0.75 0.75)">
    <g id="Group_18331" data-name="Group 18331" transform="translate(3.774)">
      <g id="Group_18330" data-name="Group 18330">
        <path id="Path_19162" data-name="Path 19162" d="M126.661,0a5.661,5.661,0,1,0,5.661,5.661A5.667,5.667,0,0,0,126.661,0Z" transform="translate(-121)" fill="none" stroke="#000" stroke-width="1.5"/>
      </g>
    </g>
    <g id="Group_18333" data-name="Group 18333" transform="translate(0 12.58)">
      <g id="Group_18332" data-name="Group 18332">
        <path id="Path_19163" data-name="Path 19163" d="M47.478,302.44A8.07,8.07,0,0,0,41.693,300H39.177a8.07,8.07,0,0,0-5.785,2.44A8.25,8.25,0,0,0,31,308.261a.629.629,0,0,0,.629.629H49.24a.629.629,0,0,0,.629-.629A8.25,8.25,0,0,0,47.478,302.44Z" transform="translate(-31 -300)" fill="none" stroke="#000" stroke-width="1.5"/>
      </g>
    </g>
  </g>
</svg>
