<svg xmlns="http://www.w3.org/2000/svg" width="54.524" height="61.733" viewBox="0 0 54.524 61.733">
  <g id="user_1_" data-name="user (1)" transform="translate(1.1 1.1)">
    <g id="Group_18331" data-name="Group 18331" transform="translate(10.465)">
      <g id="Group_18330" data-name="Group 18330">
        <path id="Path_19162" data-name="Path 19162" d="M136.7,0a15.7,15.7,0,1,0,15.7,15.7A15.715,15.715,0,0,0,136.7,0Z" transform="translate(-121)" fill="none" stroke="#264897" stroke-width="2.2"/>
      </g>
    </g>
    <g id="Group_18333" data-name="Group 18333" transform="translate(0 34.883)">
      <g id="Group_18332" data-name="Group 18332">
        <path id="Path_19163" data-name="Path 19163" d="M76.692,306.767A22.377,22.377,0,0,0,60.65,300H53.674a22.377,22.377,0,0,0-16.042,6.767A22.876,22.876,0,0,0,31,322.906a1.744,1.744,0,0,0,1.744,1.744H81.58a1.744,1.744,0,0,0,1.744-1.744A22.876,22.876,0,0,0,76.692,306.767Z" transform="translate(-31 -300)" fill="none" stroke="#264897" stroke-width="2.2"/>
      </g>
    </g>
  </g>
</svg>
